<?xml version="1.0" encoding="utf-8" standalone="no"?>
<!DOCTYPE svg PUBLIC "-//W3C//DTD SVG 1.1//EN"
  "http://www.w3.org/Graphics/SVG/1.1/DTD/svg11.dtd">
<svg xmlns:xlink="http://www.w3.org/1999/xlink" width="1600px" height="200px" viewBox="0 0 1152 144" xmlns="http://www.w3.org/2000/svg" version="1.1">
 <metadata>
  <rdf:RDF xmlns:dc="http://purl.org/dc/elements/1.1/" xmlns:cc="http://creativecommons.org/ns#" xmlns:rdf="http://www.w3.org/1999/02/22-rdf-syntax-ns#">
   <cc:Work>
    <dc:type rdf:resource="http://purl.org/dc/dcmitype/StillImage"/>
    <dc:date>2026-08-22T13:47:20.609247</dc:date>
    <dc:format>image/svg+xml</dc:format>
    <dc:creator>
     <cc:Agent>
      <dc:title>Matplotlib v3.10.1, https://matplotlib.org/</dc:title>
     </cc:Agent>
    </dc:creator>
   </cc:Work>
  </rdf:RDF>
 </metadata>
 <defs>
  <style type="text/css">*{stroke-linejoin: round; stroke-linecap: butt}</style>
 </defs>
 <g id="figure_1">
  <g id="patch_1">
   <path d="M 0 144 
L 1152 144 
L 1152 0 
L 0 0 
L 0 144 
z
" style="fill: none; opacity: 0"/>
  </g>
  <g id="axes_1">
   <g id="patch_2">
    <path d="M 70.491532 18.683571 
L 113.566189 17.972746 
L 115.356278 37.62 
L 50.368063 37.62 
L 47.903839 31.070292 
L 41.613084 22.521522 
L 40.609501 19.037523 
L 36.491064 18.498541 
L 33.340419 22.394328 
L 29.34831 23.631298 
L 24.48 14.4 
z
" style="fill: #ffffb2"/>
   </g>
   <g id="patch_3">
    <path d="M 70.759119 107.432748 
L 73.763473 105.933754 
L 79.773918 109.037662 
L 88.44703 111.215443 
L 92.754278 118.979785 
L 98.830622 122.423511 
L 102.109955 129.142299 
L 98.316832 129.6 
L 87.918288 124.495578 
L 81.850502 120.009408 
L 80.714069 116.3345 
L 73.794227 113.212593 
z
" style="fill: #800026"/>
   </g>
   <g id="patch_4">
    <path d="M 45.083002 75.399592 
L 46.233229 72.657221 
L 52.904369 74.301451 
L 50.935004 81.853323 
L 48.297276 82.661156 
L 47.050485 81.54633 
z
" style="fill: #fd8d3c"/>
   </g>
   <g id="patch_5">
    <path d="M 48.254256 84.075949 
L 48.66002 82.784408 
L 52.137007 82.318669 
L 52.219991 88.071747 
L 50.988285 88.126472 
z
" style="fill: #e31a1c"/>
   </g>
   <g id="patch_6">
    <path d="M 117.455485 60.66 
L 63.471736 60.66 
L 63.189976 55.854245 
L 54.812133 49.43198 
L 50.30034 37.44 
L 115.339878 37.44 
z
" style="fill: #fecc5c"/>
   </g>
   <g id="patch_7">
    <path d="M 118.866439 76.146027 
L 121.318617 79.993503 
L 126.105305 82.176478 
L 127.275759 83.7 
L 70.08137 83.7 
L 64.670363 79.468449 
L 60.588108 71.857858 
L 63.623191 63.243244 
L 63.461183 60.48 
L 117.439085 60.48 
z
" style="fill: #fd8d3c"/>
   </g>
   <g id="patch_8">
    <path d="M 130.150475 87.441876 
L 140.11832 93.906491 
L 151.542379 104.007051 
L 152.730893 106.74 
L 82.575353 106.74 
L 82.396035 106.422227 
L 76.855094 105.192295 
L 74.779698 102.887734 
L 74.50151 94.549653 
L 71.832503 91.93281 
L 72.406541 88.758738 
L 70.477034 84.009419 
L 69.851199 83.52 
L 127.137473 83.52 
z
" style="fill: #e31a1c"/>
   </g>
   <g id="patch_9">
    <path d="M 156.082318 114.446497 
L 158.916231 117.345762 
L 131.059983 121.289137 
L 103.58472 123.215505 
L 101.606936 120.215899 
L 94.557513 115.953803 
L 90.268334 110.349446 
L 84.080672 109.407604 
L 82.47378 106.56 
L 152.652614 106.56 
z
" style="fill: #800026"/>
   </g>
   <g id="patch_10">
    <path d="M 24.48 14.4 
L 70.491532 18.683571 
L 113.566189 17.972746 
L 118.866439 76.146027 
L 121.318617 79.993503 
L 126.105305 82.176478 
L 130.150475 87.441876 
L 140.11832 93.906491 
L 151.542379 104.007051 
L 156.082318 114.446497 
L 158.916231 117.345762 
L 131.059983 121.289137 
L 103.58472 123.215505 
L 101.606936 120.215899 
L 94.557513 115.953803 
L 90.268334 110.349446 
L 84.080672 109.407604 
L 82.396035 106.422227 
L 76.855094 105.192295 
L 74.779698 102.887734 
L 74.50151 94.549653 
L 71.832503 91.93281 
L 72.406541 88.758738 
L 70.477034 84.009419 
L 64.670363 79.468449 
L 60.588108 71.857858 
L 63.623191 63.243244 
L 63.189976 55.854245 
L 54.812133 49.43198 
L 47.903839 31.070292 
L 41.613084 22.521522 
L 40.609501 19.037523 
L 36.491064 18.498541 
L 33.340419 22.394328 
L 29.34831 23.631298 
L 24.48 14.4 
z
" style="fill: none; stroke: #333333; stroke-width: 2.16"/>
   </g>
   <g id="patch_11">
    <path d="M 70.759119 107.432748 
L 73.763473 105.933754 
L 79.773918 109.037662 
L 88.44703 111.215443 
L 92.754278 118.979785 
L 98.830622 122.423511 
L 102.109955 129.142299 
L 98.316832 129.6 
L 87.918288 124.495578 
L 81.850502 120.009408 
L 80.714069 116.3345 
L 73.794227 113.212593 
L 70.759119 107.432748 
z
" style="fill: none; stroke: #333333; stroke-width: 2.16"/>
   </g>
   <g id="patch_12">
    <path d="M 45.083002 75.399592 
L 46.233229 72.657221 
L 52.904369 74.301451 
L 50.935004 81.853323 
L 48.297276 82.661156 
L 47.050485 81.54633 
L 45.083002 75.399592 
z
" style="fill: none; stroke: #333333; stroke-width: 2.16"/>
   </g>
   <g id="patch_13">
    <path d="M 48.254256 84.075949 
L 48.66002 82.784408 
L 52.137007 82.318669 
L 52.219991 88.071747 
L 50.988285 88.126472 
L 48.254256 84.075949 
z
" style="fill: none; stroke: #333333; stroke-width: 2.16"/>
   </g>
   <g id="patch_14">
    <path d="M 204.32714 93.937188 
L 204.32714 50.066668 
L 218.674246 50.066668 
Q 225.809232 50.066668 229.40565 53.017081 
Q 233.01171 55.967494 233.01171 61.752618 
Q 233.01171 64.828375 231.266532 67.200276 
Q 229.521353 69.562535 226.503447 70.854546 
Q 230.061297 71.847658 232.124658 74.63416 
Q 234.188019 77.420661 234.188019 81.27741 
Q 234.188019 87.187878 230.360196 90.562533 
Q 226.532372 93.937188 219.542015 93.937188 
L 204.32714 93.937188 
z
M 210.112263 73.419284 
L 210.112263 89.203029 
L 219.667359 89.203029 
Q 223.707304 89.203029 226.040637 87.110743 
Q 228.37397 85.018456 228.37397 81.344903 
Q 228.37397 73.419284 219.754136 73.419284 
L 210.112263 73.419284 
z
M 210.112263 68.781543 
L 218.8478 68.781543 
Q 222.646698 68.781543 224.922179 66.882094 
Q 227.197661 64.982645 227.197661 61.723692 
Q 227.197661 58.10799 225.086091 56.468872 
Q 222.984163 54.829753 218.674246 54.829753 
L 210.112263 54.829753 
L 210.112263 68.781543 
z
M 275.015323 80.014324 
Q 274.205406 86.975756 269.876205 90.765012 
Q 265.556646 94.544626 258.383093 94.544626 
Q 250.611743 94.544626 245.925793 88.971624 
Q 241.239843 83.38898 241.239843 74.046005 
L 241.239843 69.832507 
Q 241.239843 63.71956 243.418907 59.081819 
Q 245.607612 54.434437 249.608989 51.946834 
Q 253.620008 49.45923 258.894112 49.45923 
Q 265.88447 49.45923 270.097968 53.364189 
Q 274.321108 57.269147 275.015323 64.163086 
L 269.201274 64.163086 
Q 268.449208 58.927549 265.932679 56.574932 
Q 263.41615 54.222315 258.894112 54.222315 
Q 253.350035 54.222315 250.197143 58.320111 
Q 247.053893 62.417907 247.053893 69.986777 
L 247.053893 74.229201 
Q 247.053893 81.373828 250.033231 85.596969 
Q 253.022212 89.810467 258.383093 89.810467 
Q 263.204029 89.810467 265.778409 87.631404 
Q 268.352789 85.442699 269.201274 80.014324 
L 275.015323 80.014324 
z
M 307.643419 80.110743 
L 308.491904 85.895867 
L 309.726064 80.679614 
L 318.403749 50.066668 
L 323.282537 50.066668 
L 331.748101 80.679614 
L 332.953335 85.982644 
L 333.888596 80.072176 
L 340.7054 50.066668 
L 346.519449 50.066668 
L 335.884464 93.937188 
L 330.61036 93.937188 
L 321.566283 61.964739 
L 320.872068 58.619009 
L 320.177854 61.964739 
L 310.815595 93.937188 
L 305.541491 93.937188 
L 294.935431 50.066668 
L 300.720555 50.066668 
L 307.643419 80.110743 
z
M 358.119827 93.937188 
L 352.546825 93.937188 
L 352.546825 61.338017 
L 358.119827 61.338017 
L 358.119827 93.937188 
z
M 352.093657 52.689258 
Q 352.093657 51.329754 352.922858 50.394492 
Q 353.752059 49.45923 355.371894 49.45923 
Q 357.00137 49.45923 357.840213 50.394492 
Q 358.688698 51.329754 358.688698 52.689258 
Q 358.688698 54.03912 357.840213 54.945456 
Q 357.00137 55.851792 355.371894 55.851792 
Q 353.752059 55.851792 352.922858 54.945456 
Q 352.093657 54.03912 352.093657 52.689258 
z
M 373.09486 93.937188 
L 367.521858 93.937188 
L 367.521858 47.6562 
L 373.09486 47.6562 
L 373.09486 93.937188 
z
M 380.655294 77.362809 
Q 380.655294 69.861433 384.203503 65.300827 
Q 387.761354 60.730579 393.517552 60.730579 
Q 399.244824 60.730579 402.590554 64.64518 
L 402.590554 47.6562 
L 408.163556 47.6562 
L 408.163556 93.937188 
L 403.043722 93.937188 
L 402.773749 90.437189 
Q 399.428019 94.544626 393.4597 94.544626 
Q 387.799921 94.544626 384.222787 89.906886 
Q 380.655294 85.259503 380.655294 77.787052 
L 380.655294 77.362809 
z
M 386.228296 77.999173 
Q 386.228296 83.54325 388.51342 86.676858 
Q 390.808185 89.810467 394.84813 89.810467 
Q 400.15116 89.810467 402.590554 85.047382 
L 402.590554 70.073554 
Q 400.093309 65.464739 394.905981 65.464739 
Q 390.808185 65.464739 388.51342 68.627273 
Q 386.228296 71.789807 386.228296 77.999173 
z
M 419.554223 93.937188 
L 419.554223 65.647934 
L 414.405463 65.647934 
L 414.405463 61.338017 
L 419.554223 61.338017 
L 419.554223 57.992288 
Q 419.554223 52.747109 422.350366 49.883473 
Q 425.156151 47.019837 430.275985 47.019837 
Q 432.20436 47.019837 434.103809 47.530856 
L 433.804911 52.052894 
Q 432.387555 51.782922 430.796646 51.782922 
Q 428.077638 51.782922 426.602432 53.364189 
Q 425.127225 54.945456 425.127225 57.895869 
L 425.127225 61.338017 
L 432.088657 61.338017 
L 432.088657 65.647934 
L 425.127225 65.647934 
L 425.127225 93.937188 
L 419.554223 93.937188 
z
M 444.294063 93.937188 
L 438.72106 93.937188 
L 438.72106 61.338017 
L 444.294063 61.338017 
L 444.294063 93.937188 
z
M 438.267892 52.689258 
Q 438.267892 51.329754 439.097093 50.394492 
Q 439.926294 49.45923 441.546129 49.45923 
Q 443.175605 49.45923 444.014448 50.394492 
Q 444.862933 51.329754 444.862933 52.689258 
Q 444.862933 54.03912 444.014448 54.945456 
Q 443.175605 55.851792 441.546129 55.851792 
Q 439.926294 55.851792 439.097093 54.945456 
Q 438.267892 54.03912 438.267892 52.689258 
z
M 468.96882 66.332507 
Q 467.705734 66.130028 466.230528 66.130028 
Q 460.744302 66.130028 458.787002 70.796694 
L 458.787002 93.937188 
L 453.214 93.937188 
L 453.214 61.338017 
L 458.632732 61.338017 
L 458.719509 65.098348 
Q 461.467443 60.730579 466.5005 60.730579 
Q 468.120335 60.730579 468.96882 61.154822 
L 468.96882 66.332507 
z
M 487.622227 94.544626 
Q 480.988619 94.544626 476.832972 90.1865 
Q 472.677325 85.828374 472.677325 78.539118 
L 472.677325 77.517079 
Q 472.677325 72.667218 474.528564 68.858678 
Q 476.379804 65.040496 479.70625 62.890359 
Q 483.042338 60.730579 486.928012 60.730579 
Q 493.282006 60.730579 496.80129 64.924794 
Q 500.330215 69.109367 500.330215 76.909641 
L 500.330215 79.233333 
L 478.250327 79.233333 
Q 478.36603 84.054269 481.065754 87.023966 
Q 483.765478 89.993662 487.921125 89.993662 
Q 490.871538 89.993662 492.915615 88.788428 
Q 494.969334 87.583194 496.512034 85.587327 
L 499.915615 88.238842 
Q 495.817819 94.544626 487.622227 94.544626 
z
M 486.928012 65.310469 
Q 483.553357 65.310469 481.258591 67.769146 
Q 478.973468 70.227824 478.433523 74.653443 
L 494.757213 74.653443 
L 494.757213 74.229201 
Q 494.516166 69.986777 492.462447 67.653444 
Q 490.41837 65.310469 486.928012 65.310469 
z
M 535.860515 74.383471 
Q 528.41699 72.242975 525.023051 69.12865 
Q 521.638753 66.004684 521.638753 61.424794 
Q 521.638753 56.247109 525.775117 52.85317 
Q 529.921122 49.45923 536.55473 49.45923 
Q 541.067127 49.45923 544.605694 51.214051 
Q 548.153903 52.95923 550.091919 56.034988 
Q 552.039577 59.101103 552.039577 62.755373 
L 546.225528 62.755373 
Q 546.225528 58.773279 543.689716 56.497797 
Q 541.163545 54.222315 536.55473 54.222315 
Q 532.273739 54.222315 529.872913 56.112122 
Q 527.481728 57.992288 527.481728 61.338017 
Q 527.481728 64.018458 529.75721 65.869697 
Q 532.032692 67.720937 537.499634 69.263637 
Q 542.966575 70.796694 546.051975 72.647934 
Q 549.147016 74.499173 550.631864 76.977135 
Q 552.126354 79.445454 552.126354 82.791184 
Q 552.126354 88.123139 547.970707 91.333883 
Q 543.81506 94.544626 536.853628 94.544626 
Q 532.33159 94.544626 528.41699 92.809089 
Q 524.50239 91.073552 522.371536 88.065288 
Q 520.250324 85.047382 520.250324 81.219558 
L 526.064373 81.219558 
Q 526.064373 85.201652 529.005144 87.506059 
Q 531.945915 89.810467 536.853628 89.810467 
Q 541.433518 89.810467 543.872911 87.939944 
Q 546.312305 86.06942 546.312305 82.849035 
Q 546.312305 79.62865 544.046465 77.864187 
Q 541.790267 76.099724 535.860515 74.383471 
z
M 578.794568 90.716803 
Q 575.545257 94.544626 569.239473 94.544626 
Q 564.032862 94.544626 561.304212 91.517078 
Q 558.575562 88.479888 558.546636 82.550137 
L 558.546636 61.338017 
L 564.119638 61.338017 
L 564.119638 82.395867 
Q 564.119638 89.810467 570.145809 89.810467 
Q 576.53837 89.810467 578.640298 85.047382 
L 578.640298 61.338017 
L 584.222943 61.338017 
L 584.222943 93.937188 
L 578.919913 93.937188 
L 578.794568 90.716803 
z
M 611.664917 85.288429 
Q 611.664917 83.032231 609.958306 81.778787 
Q 608.261336 80.525344 604.028554 79.62865 
Q 599.795772 78.722314 597.308169 77.459228 
Q 594.820566 76.186501 593.634615 74.441322 
Q 592.448665 72.696143 592.448665 70.285675 
Q 592.448665 66.274656 595.832962 63.507439 
Q 599.226902 60.730579 604.501006 60.730579 
Q 610.045082 60.730579 613.487231 63.594216 
Q 616.939021 66.457852 616.939021 70.912397 
L 611.337093 70.912397 
Q 611.337093 68.627273 609.389435 66.968871 
Q 607.451419 65.310469 604.501006 65.310469 
Q 601.454174 65.310469 599.737921 66.641047 
Q 598.021667 67.961984 598.021667 70.102479 
Q 598.021667 72.117631 599.612576 73.149311 
Q 601.213127 74.17135 605.388058 75.106611 
Q 609.562989 76.041873 612.147011 77.333884 
Q 614.740674 78.625895 615.984476 80.457851 
Q 617.237919 82.280164 617.237919 84.893112 
Q 617.237919 89.270522 613.73792 91.912395 
Q 610.247562 94.544626 604.674559 94.544626 
Q 600.759959 94.544626 597.742053 93.156197 
Q 594.733789 91.767767 593.027177 89.280164 
Q 591.330208 86.792561 591.330208 83.899999 
L 596.90321 83.899999 
Q 597.05748 86.705784 599.149767 88.354544 
Q 601.242053 89.993662 604.674559 89.993662 
Q 607.837094 89.993662 609.746184 88.711293 
Q 611.664917 87.428924 611.664917 85.288429 
z
M 637.58227 89.993662 
Q 640.561609 89.993662 642.788881 88.190632 
Q 645.025796 86.37796 645.266843 83.658952 
L 650.540947 83.658952 
Q 650.386677 86.464737 648.602931 89.00055 
Q 646.828826 91.52672 643.859129 93.040494 
Q 640.899074 94.544626 637.58227 94.544626 
Q 630.919736 94.544626 626.985852 90.099723 
Q 623.06161 85.65482 623.06161 77.941322 
L 623.06161 77.00606 
Q 623.06161 72.242975 624.806789 68.540496 
Q 626.551968 64.828375 629.820563 62.784298 
Q 633.089158 60.730579 637.553345 60.730579 
Q 643.029928 60.730579 646.664914 64.018458 
Q 650.2999 67.296695 650.540947 72.541873 
L 645.266843 72.541873 
Q 645.025796 69.379339 642.866016 67.344904 
Q 640.715879 65.310469 637.553345 65.310469 
Q 633.301279 65.310469 630.967946 68.376584 
Q 628.634613 71.433058 628.634613 77.218181 
L 628.634613 78.269146 
Q 628.634613 83.899999 630.948662 86.946831 
Q 633.272353 89.993662 637.58227 89.993662 
z
M 670.335711 94.544626 
Q 663.702103 94.544626 659.546456 90.1865 
Q 655.390809 85.828374 655.390809 78.539118 
L 655.390809 77.517079 
Q 655.390809 72.667218 657.242048 68.858678 
Q 659.093288 65.040496 662.419734 62.890359 
Q 665.755822 60.730579 669.641496 60.730579 
Q 675.99549 60.730579 679.514774 64.924794 
Q 683.043699 69.109367 683.043699 76.909641 
L 683.043699 79.233333 
L 660.963811 79.233333 
Q 661.079514 84.054269 663.779238 87.023966 
Q 666.478962 89.993662 670.634609 89.993662 
Q 673.585022 89.993662 675.629099 88.788428 
Q 677.682818 87.583194 679.225518 85.587327 
L 682.629099 88.238842 
Q 678.531303 94.544626 670.335711 94.544626 
z
M 669.641496 65.310469 
Q 666.266841 65.310469 663.972075 67.769146 
Q 661.686952 70.227824 661.147007 74.653443 
L 677.470697 74.653443 
L 677.470697 74.229201 
Q 677.22965 69.986777 675.175931 67.653444 
Q 673.131854 65.310469 669.641496 65.310469 
z
M 717.037326 77.999173 
Q 717.037326 85.442699 713.633745 89.993662 
Q 710.230164 94.544626 704.406473 94.544626 
Q 698.476721 94.544626 695.07314 90.774654 
L 695.07314 106.471623 
L 689.500138 106.471623 
L 689.500138 61.338017 
L 694.591047 61.338017 
L 694.861019 64.95372 
Q 698.2646 60.730579 704.319696 60.730579 
Q 710.191596 60.730579 713.614461 65.165841 
Q 717.037326 69.59146 717.037326 77.488154 
L 717.037326 77.999173 
z
M 711.464324 77.362809 
Q 711.464324 71.847658 709.111707 68.656199 
Q 706.75909 65.464739 702.661294 65.464739 
Q 697.599311 65.464739 695.07314 69.94821 
L 695.07314 85.529475 
Q 697.570385 89.993662 702.719145 89.993662 
Q 706.730164 89.993662 709.092423 86.811845 
Q 711.464324 83.630027 711.464324 77.362809 
z
M 731.679715 53.441324 
L 731.679715 61.338017 
L 737.763736 61.338017 
L 737.763736 65.647934 
L 731.679715 65.647934 
L 731.679715 85.857299 
Q 731.679715 87.824241 732.489632 88.807712 
Q 733.309191 89.781541 735.266491 89.781541 
Q 736.230678 89.781541 737.918006 89.41515 
L 737.918006 93.937188 
Q 735.719659 94.544626 733.637015 94.544626 
Q 729.90561 94.544626 728.006161 92.288428 
Q 726.106712 90.022588 726.106712 85.857299 
L 726.106712 65.647934 
L 720.167319 65.647934 
L 720.167319 61.338017 
L 726.106712 61.338017 
L 726.106712 53.441324 
L 731.679715 53.441324 
z
M 750.333122 93.937188 
L 744.76012 93.937188 
L 744.76012 61.338017 
L 750.333122 61.338017 
L 750.333122 93.937188 
z
M 744.306952 52.689258 
Q 744.306952 51.329754 745.136153 50.394492 
Q 745.965354 49.45923 747.585189 49.45923 
Q 749.214665 49.45923 750.053508 50.394492 
Q 750.901993 51.329754 750.901993 52.689258 
Q 750.901993 54.03912 750.053508 54.945456 
Q 749.214665 55.851792 747.585189 55.851792 
Q 745.965354 55.851792 745.136153 54.945456 
Q 744.306952 54.03912 744.306952 52.689258 
z
M 786.848099 77.999173 
Q 786.848099 85.471624 783.415592 90.012946 
Q 779.983085 94.544626 774.197962 94.544626 
Q 768.017522 94.544626 764.642866 90.167216 
L 764.372894 93.937188 
L 759.253059 93.937188 
L 759.253059 47.6562 
L 764.826062 47.6562 
L 764.826062 64.924794 
Q 768.200717 60.730579 774.130469 60.730579 
Q 780.069862 60.730579 783.454159 65.223692 
Q 786.848099 69.707163 786.848099 77.517079 
L 786.848099 77.999173 
z
M 781.275096 77.362809 
Q 781.275096 71.674105 779.076749 68.569422 
Q 776.878402 65.464739 772.751681 65.464739 
Q 767.23653 65.464739 764.826062 70.584573 
L 764.826062 84.690633 
Q 767.381158 89.810467 772.809532 89.810467 
Q 776.810909 89.810467 779.038182 86.705784 
Q 781.275096 83.601101 781.275096 77.362809 
z
M 799.928504 93.937188 
L 794.355502 93.937188 
L 794.355502 61.338017 
L 799.928504 61.338017 
L 799.928504 93.937188 
z
M 793.902334 52.689258 
Q 793.902334 51.329754 794.731535 50.394492 
Q 795.560736 49.45923 797.18057 49.45923 
Q 798.810047 49.45923 799.64889 50.394492 
Q 800.497374 51.329754 800.497374 52.689258 
Q 800.497374 54.03912 799.64889 54.945456 
Q 798.810047 55.851792 797.18057 55.851792 
Q 795.560736 55.851792 794.731535 54.945456 
Q 793.902334 54.03912 793.902334 52.689258 
z
M 814.903537 93.937188 
L 809.330535 93.937188 
L 809.330535 47.6562 
L 814.903537 47.6562 
L 814.903537 93.937188 
z
M 829.87857 93.937188 
L 824.305568 93.937188 
L 824.305568 61.338017 
L 829.87857 61.338017 
L 829.87857 93.937188 
z
M 823.8524 52.689258 
Q 823.8524 51.329754 824.681601 50.394492 
Q 825.510802 49.45923 827.130637 49.45923 
Q 828.760113 49.45923 829.598956 50.394492 
Q 830.447441 51.329754 830.447441 52.689258 
Q 830.447441 54.03912 829.598956 54.945456 
Q 828.760113 55.851792 827.130637 55.851792 
Q 825.510802 55.851792 824.681601 54.945456 
Q 823.8524 54.03912 823.8524 52.689258 
z
M 846.357736 53.441324 
L 846.357736 61.338017 
L 852.441757 61.338017 
L 852.441757 65.647934 
L 846.357736 65.647934 
L 846.357736 85.857299 
Q 846.357736 87.824241 847.167653 88.807712 
Q 847.987212 89.781541 849.944512 89.781541 
Q 850.9087 89.781541 852.596027 89.41515 
L 852.596027 93.937188 
Q 850.39768 94.544626 848.315036 94.544626 
Q 844.583631 94.544626 842.684182 92.288428 
Q 840.784733 90.022588 840.784733 85.857299 
L 840.784733 65.647934 
L 834.84534 65.647934 
L 834.84534 61.338017 
L 840.784733 61.338017 
L 840.784733 53.441324 
L 846.357736 53.441324 
z
M 869.619958 85.770522 
L 877.208112 61.338017 
L 883.176431 61.338017 
L 870.073126 98.970246 
Q 867.026295 107.107986 860.402328 107.107986 
L 859.341722 107.011567 
L 857.26872 106.625893 
L 857.26872 102.103854 
L 858.772852 102.219557 
Q 861.607562 102.219557 863.188829 101.072174 
Q 864.770096 99.934433 865.792135 96.887601 
L 867.026295 93.570797 
L 855.398196 61.338017 
L 861.482218 61.338017 
L 869.619958 85.770522 
z
M 929.095849 73.66033 
L 910.082076 73.66033 
L 910.082076 89.203029 
L 932.171606 89.203029 
L 932.171606 93.937188 
L 904.296953 93.937188 
L 904.296953 50.066668 
L 931.872708 50.066668 
L 931.872708 54.829753 
L 910.082076 54.829753 
L 910.082076 68.926171 
L 929.095849 68.926171 
L 929.095849 73.66033 
z
M 949.435379 73.236088 
L 956.666783 61.338017 
L 963.175047 61.338017 
L 952.511136 77.459228 
L 963.502871 93.937188 
L 957.0621 93.937188 
L 949.522156 81.730578 
L 941.991853 93.937188 
L 935.512515 93.937188 
L 946.513892 77.459228 
L 935.849981 61.338017 
L 942.290751 61.338017 
L 949.435379 73.236088 
z
M 996.621498 77.999173 
Q 996.621498 85.442699 993.217917 89.993662 
Q 989.814336 94.544626 983.990645 94.544626 
Q 978.060893 94.544626 974.657312 90.774654 
L 974.657312 106.471623 
L 969.08431 106.471623 
L 969.08431 61.338017 
L 974.175219 61.338017 
L 974.445191 64.95372 
Q 977.848772 60.730579 983.903868 60.730579 
Q 989.775768 60.730579 993.198633 65.165841 
Q 996.621498 69.59146 996.621498 77.488154 
L 996.621498 77.999173 
z
M 991.048495 77.362809 
Q 991.048495 71.847658 988.695879 68.656199 
Q 986.343262 65.464739 982.245466 65.464739 
Q 977.183483 65.464739 974.657312 69.94821 
L 974.657312 85.529475 
Q 977.154557 89.993662 982.303317 89.993662 
Q 986.314336 89.993662 988.676595 86.811845 
Q 991.048495 83.630027 991.048495 77.362809 
z
M 1009.759754 93.937188 
L 1004.186752 93.937188 
L 1004.186752 47.6562 
L 1009.759754 47.6562 
L 1009.759754 93.937188 
z
M 1017.194843 77.333884 
Q 1017.194843 72.541873 1019.075008 68.71405 
Q 1020.964815 64.886226 1024.320187 62.813224 
Q 1027.6852 60.730579 1031.995118 60.730579 
Q 1038.64801 60.730579 1042.765089 65.339394 
Q 1046.882169 69.94821 1046.882169 77.603856 
L 1046.882169 77.999173 
Q 1046.882169 82.762258 1045.050213 86.541872 
Q 1043.227899 90.321486 1039.83396 92.433056 
Q 1036.449663 94.544626 1032.052969 94.544626 
Q 1025.429002 94.544626 1021.311923 89.935811 
Q 1017.194843 85.317354 1017.194843 77.729201 
L 1017.194843 77.333884 
z
M 1022.806413 77.999173 
Q 1022.806413 83.417905 1025.322942 86.705784 
Q 1027.83947 89.993662 1032.052969 89.993662 
Q 1036.305035 89.993662 1038.802279 86.667216 
Q 1041.299524 83.331129 1041.299524 77.333884 
Q 1041.299524 71.973003 1038.75407 68.646557 
Q 1036.208616 65.310469 1031.995118 65.310469 
Q 1027.868396 65.310469 1025.332584 68.598347 
Q 1022.806413 71.876584 1022.806413 77.999173 
z
M 1069.627346 66.332507 
Q 1068.364261 66.130028 1066.889054 66.130028 
Q 1061.402829 66.130028 1059.445529 70.796694 
L 1059.445529 93.937188 
L 1053.872526 93.937188 
L 1053.872526 61.338017 
L 1059.291259 61.338017 
L 1059.378035 65.098348 
Q 1062.125969 60.730579 1067.159027 60.730579 
Q 1068.778861 60.730579 1069.627346 61.154822 
L 1069.627346 66.332507 
z
M 1088.280753 94.544626 
Q 1081.647145 94.544626 1077.491498 90.1865 
Q 1073.335851 85.828374 1073.335851 78.539118 
L 1073.335851 77.517079 
Q 1073.335851 72.667218 1075.187091 68.858678 
Q 1077.03833 65.040496 1080.364776 62.890359 
Q 1083.700864 60.730579 1087.586539 60.730579 
Q 1093.940533 60.730579 1097.459816 64.924794 
Q 1100.988741 69.109367 1100.988741 76.909641 
L 1100.988741 79.233333 
L 1078.908853 79.233333 
Q 1079.024556 84.054269 1081.72428 87.023966 
Q 1084.424004 89.993662 1088.579652 89.993662 
Q 1091.530065 89.993662 1093.574141 88.788428 
Q 1095.62786 87.583194 1097.17056 85.587327 
L 1100.574141 88.238842 
Q 1096.476345 94.544626 1088.280753 94.544626 
z
M 1087.586539 65.310469 
Q 1084.211883 65.310469 1081.917118 67.769146 
Q 1079.631994 70.227824 1079.092049 74.653443 
L 1095.415739 74.653443 
L 1095.415739 74.229201 
Q 1095.174692 69.986777 1093.120973 67.653444 
Q 1091.076897 65.310469 1087.586539 65.310469 
z
M 1123.2 66.332507 
Q 1121.936915 66.130028 1120.461708 66.130028 
Q 1114.975483 66.130028 1113.018183 70.796694 
L 1113.018183 93.937188 
L 1107.44518 93.937188 
L 1107.44518 61.338017 
L 1112.863913 61.338017 
L 1112.95069 65.098348 
Q 1115.698623 60.730579 1120.731681 60.730579 
Q 1122.351515 60.730579 1123.2 61.154822 
L 1123.2 66.332507 
z
" style="fill: #333333"/>
   </g>
   <g id="patch_15">
    <path d="M 88.822724 104.256 
L 94.573508 104.256 
L 94.573508 87.6672 
L 88.822724 87.6672 
z
" style="fill: #ffffff; stroke: #ffffff; stroke-width: 2.9952; stroke-linecap: round"/>
   </g>
   <g id="patch_16">
    <path d="M 68.473796 92.09088 
L 114.922436 92.09088 
L 91.698116 71.0784 
z
" style="fill: #ffffff; stroke: #ffffff; stroke-width: 2.9952; stroke-linecap: round"/>
   </g>
   <g id="patch_17">
    <path d="M 72.897476 79.3728 
L 110.498756 79.3728 
L 91.698116 60.57216 
z
" style="fill: #ffffff; stroke: #ffffff; stroke-width: 2.9952; stroke-linecap: round"/>
   </g>
   <g id="patch_18">
    <path d="M 77.874116 67.76064 
L 105.522116 67.76064 
L 91.698116 48.96 
z
" style="fill: #ffffff; stroke: #ffffff; stroke-width: 2.9952; stroke-linecap: round"/>
   </g>
   <g id="patch_19">
    <path d="M 92.527556 105.209856 
C 82.988996 99.48672 82.353092 87.722496 89.98394 80.4096 
C 89.348036 76.594176 91.255748 74.368512 92.527556 73.414656 
C 97.614788 78.501888 102.70202 85.496832 100.794308 92.491776 
C 99.5225 98.214912 96.34298 102.030336 92.527556 105.209856 
z
" style="fill: #ffffff; stroke: #ffffff; stroke-width: 2.9952; stroke-linecap: round"/>
   </g>
   <g id="patch_20">
    <path d="M 93.481412 102.348288 
C 88.52136 99.372257 88.19069 93.254861 92.158731 89.452155 
C 91.828061 87.468134 92.820071 86.310789 93.481412 85.814784 
C 96.126772 88.460145 98.772133 92.097516 97.780123 95.734886 
C 97.118782 98.710917 95.465432 100.694938 93.481412 102.348288 
z
" style="fill: #ffffff; stroke: #ffffff; stroke-width: 2.9952; stroke-linecap: round"/>
   </g>
   <g id="patch_21">
    <path d="M 88.822724 104.256 
L 94.573508 104.256 
L 94.573508 87.6672 
L 88.822724 87.6672 
z
" style="fill: #4e342e"/>
   </g>
   <g id="patch_22">
    <path d="M 68.473796 92.09088 
L 114.922436 92.09088 
L 91.698116 71.0784 
z
" style="fill: #1b7837"/>
   </g>
   <g id="patch_23">
    <path d="M 72.897476 79.3728 
L 110.498756 79.3728 
L 91.698116 60.57216 
z
" style="fill: #1b7837"/>
   </g>
   <g id="patch_24">
    <path d="M 77.874116 67.76064 
L 105.522116 67.76064 
L 91.698116 48.96 
z
" style="fill: #1b7837"/>
   </g>
   <g id="patch_25">
    <path d="M 92.527556 105.209856 
C 82.988996 99.48672 82.353092 87.722496 89.98394 80.4096 
C 89.348036 76.594176 91.255748 74.368512 92.527556 73.414656 
C 97.614788 78.501888 102.70202 85.496832 100.794308 92.491776 
C 99.5225 98.214912 96.34298 102.030336 92.527556 105.209856 
z
" style="fill: #e31a1c"/>
   </g>
   <g id="patch_26">
    <path d="M 93.481412 102.348288 
C 88.52136 99.372257 88.19069 93.254861 92.158731 89.452155 
C 91.828061 87.468134 92.820071 86.310789 93.481412 85.814784 
C 96.126772 88.460145 98.772133 92.097516 97.780123 95.734886 
C 97.118782 98.710917 95.465432 100.694938 93.481412 102.348288 
z
" style="fill: #fecc5c"/>
   </g>
  </g>
 </g>
</svg>
